<svg width="93" height="39" viewBox="0 0 93 39" fill="none" xmlns="http://www.w3.org/2000/svg">
<ellipse cx="19.7086" cy="19.191" rx="19.3314" ry="18.9455" fill="#F6BD00"/>
<g clip-path="url(#clip0_44_759)">
<path d="M19.7086 32.5643C27.2449 32.5643 33.3543 26.5768 33.3543 19.1909C33.3543 11.8051 27.2449 5.81763 19.7086 5.81763C12.1723 5.81763 6.0629 11.8051 6.0629 19.1909C6.0629 26.5768 12.1723 32.5643 19.7086 32.5643Z" fill="#F0F0F0"/>
<path d="M9.18201 10.68H30.2352C29.4576 9.75721 28.5557 8.93888 27.5553 8.24854H11.8619C10.8615 8.93878 9.95965 9.75716 9.18201 10.68Z" fill="#F0F0F0"/>
<path d="M6.0629 19.1916C6.0629 19.6015 6.08278 20.0068 6.11961 20.4073H33.2976C33.3344 20.0068 33.3543 19.6015 33.3543 19.1916C33.3543 18.7816 33.3344 18.3764 33.2976 17.9758H6.11961C6.08278 18.3764 6.0629 18.7816 6.0629 19.1916Z" fill="#F0F0F0"/>
<path d="M7.55126 25.2698H31.8666C32.2684 24.4995 32.5961 23.6861 32.8408 22.8384H6.57709C6.8217 23.6861 7.14951 24.4995 7.55126 25.2698Z" fill="#F0F0F0"/>
<path d="M11.8619 30.1327H27.5552C28.5557 29.4423 29.4576 28.624 30.2351 27.7012H9.18201C9.95965 28.6239 10.8615 29.4423 11.8619 30.1327Z" fill="#F0F0F0"/>
<path d="M6.57697 15.5443H32.8408C32.5961 14.6965 32.2684 13.8831 31.8666 13.1128H7.55119C7.14945 13.8831 6.82163 14.6965 6.57697 15.5443Z" fill="#F0F0F0"/>
<path d="M12.5884 8.24924H27.5545C25.335 6.71768 22.6287 5.81775 19.7079 5.81775C17.928 5.81775 14.8079 6.71768 12.5884 8.24924Z" fill="#D80027"/>
<path d="M19.1153 13.112H31.8662C31.4125 12.2421 30.8644 11.4272 30.2352 10.6805H19.1153V13.112Z" fill="#D80027"/>
<path d="M19.1153 17.9746H33.2976C33.2208 17.1397 33.0665 16.3266 32.8405 15.5431H19.1153V17.9746Z" fill="#D80027"/>
<path d="M6.57627 22.8393H32.84C33.0661 22.0558 33.2204 21.2427 33.2971 20.4078H6.11914C6.1959 21.2427 6.35016 22.0558 6.57627 22.8393Z" fill="#D80027"/>
<path d="M9.18169 27.7019H30.2349C30.8641 26.9551 31.4122 26.1403 31.866 25.2704H7.5506C8.00437 26.1403 8.55244 26.9552 9.18169 27.7019Z" fill="#D80027"/>
<path d="M19.7078 32.5648C22.6286 32.5648 25.3349 31.6649 27.5544 30.1333H11.8611C14.0807 31.6649 16.7869 32.5648 19.7078 32.5648Z" fill="#D80027"/>
<path d="M6.57674 15.5432C6.35062 16.3268 6.19642 17.1398 6.11966 17.9747H19.7086V5.81714C13.4625 5.81714 8.19674 9.93006 6.57674 15.5432Z" fill="#0052B4"/>
<path d="M14.1862 9.3064L15.0697 11.9714H17.9292L15.616 13.6186L16.4994 16.2838L14.1862 14.6367L11.8729 16.2838L12.7566 13.6186L10.4433 11.9714H13.3027L14.1862 9.3064Z" fill="#F0F0F0"/>
</g>
<rect x="1.37717" y="1.24548" width="90.1086" height="35.8911" rx="17.9455" stroke="#F6BD00" stroke-width="2"/>
<g clip-path="url(#clip1_44_759)">
<path d="M73.1543 32.5643C80.6906 32.5643 86.8 26.5768 86.8 19.1909C86.8 11.8051 80.6906 5.81763 73.1543 5.81763C65.618 5.81763 59.5086 11.8051 59.5086 19.1909C59.5086 26.5768 65.618 32.5643 73.1543 32.5643Z" fill="#F0F0F0"/>
<path d="M73.1545 5.81726C67.2873 5.81726 62.2856 9.44644 60.3575 14.539H85.9515C84.0234 9.44644 79.0217 5.81726 73.1545 5.81726Z" fill="#D80027"/>
<path d="M73.1545 32.5646C79.0217 32.5646 84.0234 28.9355 85.9515 23.8429H60.3575C62.2856 28.9355 67.2873 32.5646 73.1545 32.5646Z" fill="black"/>
<path d="M77.9006 17.7372H74.3408C74.3408 17.095 73.8096 16.5743 73.1543 16.5743C72.4989 16.5743 71.9677 17.095 71.9677 17.7372H68.4079C68.4079 18.3795 68.9787 18.9001 69.634 18.9001H69.5945C69.5945 19.5424 70.1257 20.0631 70.7811 20.0631C70.7811 20.7053 71.3123 21.226 71.9677 21.226H74.3408C74.9962 21.226 75.5274 20.7053 75.5274 20.0631C76.1828 20.0631 76.714 19.5424 76.714 18.9001H76.6745C77.3298 18.9001 77.9006 18.3795 77.9006 17.7372Z" fill="#FF9811"/>
</g>
<defs>
<clipPath id="clip0_44_759">
<rect width="27.2914" height="26.7466" fill="white" transform="translate(6.0629 5.81763)"/>
</clipPath>
<clipPath id="clip1_44_759">
<rect width="27.2914" height="26.7466" fill="white" transform="translate(59.5086 5.81763)"/>
</clipPath>
</defs>
</svg>
